<svg width="78" height="46" viewBox="0 0 78 46" fill="none" xmlns="http://www.w3.org/2000/svg">
<path d="M29.1027 44.5635L1.51916 44.5635V43.2975L29.1182 43.3355L29.1027 44.5635Z" fill="white"/>
<path d="M1.54299 44.0399L1.54299 26.5788L2.3261 27.2211L2.809 27.735L2.809 44.0497L1.54299 44.0399Z" fill="white"/>
<path d="M76.7202 45.3137L76.7202 28.6118L77.5033 29.126L77.9862 29.3831V45.3231L76.7202 45.3137Z" fill="white"/>
<path d="M77.1607 30.3092L75.4545 28.8006L76.2931 27.8521L77.9751 29.3901L77.1607 30.3092Z" fill="white"/>
<path d="M77.9811 45.5763H68.6179V44.3103L77.9863 44.3483L77.9811 45.5763Z" fill="white"/>
<path d="M76.5493 28.0475L76.0976 28.5774L75.6821 29.0649L74.4415 28.9591L76.2482 26.8393L76.5493 28.0475Z" fill="white"/>
<path d="M2.99903 28.0254L1.98586 27.0406L1.05374 26.1345L1.01302 24.0682L5.06571 28.0076L2.99903 28.0254Z" fill="white"/>
<path d="M33.8338 39.4668L29.1182 44.5634L28.2338 43.765L32.9262 38.6396L33.8338 39.4668Z" fill="white"/>
<path d="M39.2398 34.565L43.7585 37.891L43.008 38.9106L38.5094 35.5521L39.2398 34.565Z" fill="white"/>
<path d="M51.0046 30.9839L43.4781 39.3261L42.5382 38.4781L50.097 30.1566L51.0046 30.9839Z" fill="white"/>
<path d="M50.253 30.2639L59.9702 39.5171L59.0972 40.4339L49.4007 31.148L50.253 30.2639Z" fill="white"/>
<path d="M60.6012 37.5543L69.5044 44.6396L68.6177 45.5762L59.8315 38.5112L60.6012 37.5543Z" fill="white"/>
<path d="M40.0601 35.4096L35.8285 39.8804L35.5753 39.7538L34.9423 39.1754L39.1522 34.5827L40.0601 35.4096Z" fill="white"/>
<path d="M35.8282 39.8802H32.6632L32.5366 39.2472L32.9164 38.6522H36.208L35.8282 39.3738V39.8802Z" fill="white"/>
<rect x="58.752" y="39.1898" width="2.56062" height="1.10512" transform="rotate(-44.9517 58.752 39.1898)" fill="white"/>
<path d="M5.42612 0H10.1562H14.5079L19.4271 4.8652H0.506836L5.42612 0Z" fill="white"/>
<path d="M0.506836 23.5773H18.6703V28.4425H5.42612L0.506836 23.5773Z" fill="white"/>
<path d="M13.063 11.3619L13.0634 4.87994L19.4967 4.8794L13.063 11.3619Z" fill="white"/>
<rect x="0.506836" y="4.86523" width="5.29769" height="18.7123" fill="white"/>
<path d="M71.6562 21.1693L72.9579 20.0864V22.8352H71.6562V21.1693Z" fill="white"/>
<path d="M71.6562 21.1692L72.7671 20.0031H74.9148L75.9516 21.1692H71.6562Z" fill="white"/>
<path d="M71.6562 22.798H74.838L75.9516 24.0277H72.7699L71.6562 22.798Z" fill="white"/>
<path d="M74.8213 22.798H74.9343L75.9516 23.9722V27.3815H75.8888H74.8213V23.9722V22.798Z" fill="white"/>
<path d="M71.6562 27.3333H75.9516L74.9176 28.4994H71.6562V27.3333Z" fill="white"/>
<path d="M67.0652 28.4044H65.7935H64.6236L63.3011 26.9511H68.3877L67.0652 28.4044Z" fill="white"/>
<rect x="63.3008" y="18.2312" width="1.58251" height="8.71989" fill="white"/>
<rect x="68.3877" y="18.2313" width="1.58251" height="10.1732" fill="white"/>
<path d="M57.0342 19.9564L58.5037 18.4845V27.3162H57.0621L57.0342 19.9564Z" fill="white"/>
<path d="M57.0342 27.3157H60.3122V28.6572H58.2419L57.0342 27.3157Z" fill="white"/>
<path d="M56.4744 20.3845H59.747V21.726H55.4517L56.4744 20.3845Z" fill="white"/>
<path d="M50.5911 20.0031H52.004H53.3039L54.7734 21.4564H49.1216L50.5911 20.0031Z" fill="white"/>
<path d="M49.1216 27.046H54.5473V28.4993H50.5911L49.1216 27.046Z" fill="white"/>
<path d="M52.8725 23.397L52.8726 21.4608L54.7943 21.4606L52.8725 23.397Z" fill="white"/>
<rect x="49.1216" y="21.4564" width="1.58251" height="5.58968" fill="white"/>
<rect x="49.1216" y="21.4564" width="1.58251" height="2.23587" fill="white"/>
<path d="M44.0076 20.0031H45.4205H46.7204L48.1899 21.4564H42.5381L44.0076 20.0031Z" fill="white"/>
<path d="M42.5381 27.046H48.1899V28.4993H44.0688L42.5381 27.046Z" fill="white"/>
<rect x="42.5381" y="21.4564" width="1.58251" height="5.58968" fill="white"/>
<rect x="46.6074" y="21.4564" width="1.58251" height="3.24201" fill="white"/>
<path d="M45.5009 24.6984L48.1902 24.6984L47.1492 25.8163H44.46L45.5009 24.6984Z" fill="white"/>
<path d="M28.6118 20.0031H30.1943V28.4994H28.6118V20.0031Z" fill="white"/>
<path d="M32.3423 20.4502L33.9248 21.4563V28.4993H32.3423V20.4502Z" fill="white"/>
<path d="M31.2797 20.4502H32.3406H32.6156L33.9245 21.4563H30.1943L31.2797 20.4502Z" fill="white"/>
<path d="M35.4487 20.0031H37.0312V28.4994H35.4487V20.0031Z" fill="white"/>
<path d="M39.1787 20.4502L40.7612 21.4563V28.4993H39.1787V20.4502Z" fill="white"/>
<path d="M38.1167 20.4502H39.1775H39.4525L40.7615 21.4563H37.0312L38.1167 20.4502Z" fill="white"/>
<path d="M22.9919 20.0031H24.4049H25.7048L27.1743 21.4564H21.5225L22.9919 20.0031Z" fill="white"/>
<rect x="21.5225" y="21.4564" width="1.58251" height="5.58968" fill="white"/>
<path d="M25.7048 28.4993H24.2919H22.992L21.5225 27.046H27.1743L25.7048 28.4993Z" fill="white"/>
<rect x="25.5918" y="21.4564" width="1.58251" height="5.58968" fill="white"/>
</svg>
