<svg width="374" height="225" viewBox="0 0 374 225" fill="none" xmlns="http://www.w3.org/2000/svg">
<path d="M139.544 218.957L7.28529 218.957V212.737L139.619 212.924L139.544 218.957Z" fill="white"/>
<path d="M7.39804 216.384L7.39804 130.591L11.153 133.747L13.4684 136.272L13.4684 216.433L7.39804 216.384Z" fill="white"/>
<path d="M367.864 222.643L367.864 140.581L371.619 143.107L373.934 144.37V222.69L367.864 222.643Z" fill="white"/>
<path d="M369.974 148.921L361.793 141.508L365.814 136.848L373.879 144.405L369.974 148.921Z" fill="white"/>
<path d="M373.909 223.934H329.014V217.713L373.934 217.9L373.909 223.934Z" fill="white"/>
<path d="M367.044 137.808L364.878 140.412L362.886 142.807L356.937 142.287L365.6 131.872L367.044 137.808Z" fill="white"/>
<path d="M14.3799 137.699L9.52186 132.86L5.05247 128.409L4.85721 118.256L24.2893 137.612L14.3799 137.699Z" fill="white"/>
<path d="M162.229 193.916L139.619 218.957L135.378 215.034L157.877 189.852L162.229 193.916Z" fill="white"/>
<path d="M188.15 169.831L209.816 186.173L206.218 191.183L184.647 174.681L188.15 169.831Z" fill="white"/>
<path d="M244.56 152.236L208.472 193.224L203.965 189.058L240.208 148.171L244.56 152.236Z" fill="white"/>
<path d="M240.957 148.698L287.549 194.163L283.363 198.668L236.87 153.042L240.957 148.698Z" fill="white"/>
<path d="M290.576 184.519L333.265 219.332L329.014 223.934L286.885 189.22L290.576 184.519Z" fill="white"/>
<path d="M192.082 173.981L171.792 195.948L170.578 195.326L167.543 192.484L187.729 169.918L192.082 173.981Z" fill="white"/>
<path d="M171.792 195.947H156.616L156.009 192.837L157.83 189.914H173.613L171.792 193.459V195.947Z" fill="white"/>
<rect width="12.4302" height="5.36491" transform="matrix(0.699026 -0.715096 0.69782 0.716274 281.709 192.555)" fill="white"/>
<path d="M24.0844 0H47.0431H68.165L92.042 23.6145H0.207397L24.0844 0Z" fill="white"/>
<path d="M0.207397 114.438H88.3686V138.053H24.0844L0.207397 114.438Z" fill="white"/>
<path d="M61.1535 55.1478L61.1555 23.6862L92.381 23.6835L61.1535 55.1478Z" fill="white"/>
<rect x="0.207397" y="23.6145" width="25.7137" height="90.8251" fill="white"/>
<path d="M345.551 102.75L351.869 97.4939V110.836H345.551V102.75Z" fill="white"/>
<path d="M345.551 102.75L350.943 97.0895H361.368L366.4 102.75H345.551Z" fill="white"/>
<path d="M345.551 110.655H360.995L366.4 116.624H350.956L345.551 110.655Z" fill="white"/>
<path d="M360.913 110.655H361.462L366.4 116.354V132.903H366.095H360.913V116.354V110.655Z" fill="white"/>
<path d="M345.551 132.669H366.4L361.381 138.329H345.551V132.669Z" fill="white"/>
<path d="M323.265 137.865H317.093H311.415L304.995 130.811H329.685L323.265 137.865Z" fill="white"/>
<rect x="304.995" y="88.4866" width="7.68113" height="42.3243" fill="white"/>
<rect x="329.685" y="88.4866" width="7.68113" height="49.3783" fill="white"/>
<path d="M274.578 96.8601L281.71 89.7156V132.583H274.713L274.578 96.8601Z" fill="white"/>
<path d="M274.578 132.583H290.489V139.094H280.44L274.578 132.583Z" fill="white"/>
<path d="M271.86 98.9404H287.745V105.452H266.896L271.86 98.9404Z" fill="white"/>
<path d="M243.304 97.0895H250.162H256.472L263.604 104.144H236.172L243.304 97.0895Z" fill="white"/>
<path d="M236.172 131.274H262.507V138.328H243.304L236.172 131.274Z" fill="white"/>
<path d="M254.377 113.563L254.378 104.165L263.706 104.164L254.377 113.563Z" fill="white"/>
<rect x="236.172" y="104.144" width="7.68113" height="27.1309" fill="white"/>
<rect x="236.172" y="104.144" width="7.68113" height="10.8524" fill="white"/>
<path d="M211.351 97.0895H218.209H224.518L231.651 104.144H204.218L211.351 97.0895Z" fill="white"/>
<path d="M204.218 131.274H231.651V138.328H211.648L204.218 131.274Z" fill="white"/>
<rect x="204.218" y="104.144" width="7.68113" height="27.1309" fill="white"/>
<rect x="223.97" y="104.144" width="7.68113" height="15.7359" fill="white"/>
<path d="M218.599 119.879L231.651 119.879L226.599 125.306H213.546L218.599 119.879Z" fill="white"/>
<path d="M136.624 97.0895H144.305V138.329H136.624V97.0895Z" fill="white"/>
<path d="M154.73 99.2596L162.411 104.143V138.328H154.73V99.2596Z" fill="white"/>
<path d="M149.574 99.2596H154.723H156.058L162.411 104.143H144.305L149.574 99.2596Z" fill="white"/>
<path d="M169.807 97.0895H177.488V138.329H169.807V97.0895Z" fill="white"/>
<path d="M187.912 99.2596L195.593 104.143V138.328H187.912V99.2596Z" fill="white"/>
<path d="M182.756 99.2596H187.905H189.24L195.593 104.143H177.488L182.756 99.2596Z" fill="white"/>
<path d="M109.345 97.0895H116.204H122.513L129.645 104.144H102.213L109.345 97.0895Z" fill="white"/>
<rect x="102.213" y="104.144" width="7.68113" height="27.1309" fill="white"/>
<path d="M122.513 138.328H115.655H109.346L102.213 131.274H129.646L122.513 138.328Z" fill="white"/>
<rect x="121.965" y="104.144" width="7.68113" height="27.1309" fill="white"/>
</svg>
