<?xml version="1.0" encoding="UTF-8"?>
<svg version="1.1" viewBox="0 0 1000 800" width="250" height="200" xmlns="http://www.w3.org/2000/svg">
<path transform="translate(526,283)" d="m0 0 4 1 8 10 7 7v2h2l7 8 12 13 11 12 24 26 7 8 9 10 15 16 14 15 4 5 3 1 7-7 7-8 4-4 4 2 17 14 9 7 16 13 11 9 16 13 14 11 17 14 16 13 18 14 7 6v2l-6-2-29-15-15-8-23-11-72-36h-6l-24 12-9 4-6-1-28-13-31-15-22-12-20-10-6 1-22 12-10 6h-2l2-5 9-17 9-19 9-10 13-12-1-10-5-13-10-14-5 1-10 9-24 22-11 10-8 7-12 11-13 12-10 9-12 11-8 7-7 7-8 7-12 11-4 2 4-41 3-9 7-15-4-5-8-7-7-7-6 2-2 4h-2l-2 4-41 41-34 1-8 7-13 12-11 9-9 9-8 7-15 14-14 13-11 9v-3l11-11 7-8 29-31 9-11 15-16 7-8 4-3 33-3 4-1 2-4 8-8 7-8 36-39 5 3 15 13 28 24 5 4 4-1 12-12 7-8 39-39 14-1 9-10 11-14 14-17z" fill="#010101"/>
</svg>
